<?xml version="1.0" standalone="no"?>
<!DOCTYPE svg PUBLIC "-//W3C//DTD SVG 20010904//EN"
 "http://www.w3.org/TR/2001/REC-SVG-20010904/DTD/svg10.dtd">
<svg version="1.0" xmlns="http://www.w3.org/2000/svg"
 width="700.000000pt" height="700.000000pt" viewBox="0 0 700.000000 700.000000"
 preserveAspectRatio="xMidYMid meet">
<metadata>
Created by potrace 1.14, written by Peter Selinger 2001-2017
</metadata>
<g transform="translate(0.000000,700.000000) scale(0.100000,-0.100000)"
fill="#000000" stroke="none">
<path d="M1208 5625 c-2 -1 -79 -5 -173 -9 -213 -8 -241 -12 -279 -38 -88 -61
-141 -155 -158 -280 -8 -59 -12 -502 -12 -1548 -1 -806 1 -1483 4 -1506 4 -36
15 -49 90 -116 l85 -76 795 -5 c437 -3 812 -9 834 -13 l38 -6 -6 -48 c-4 -26
-22 -103 -42 -171 -20 -68 -38 -136 -41 -151 -6 -30 -16 -34 -128 -44 -108 -9
-215 -33 -271 -59 -83 -40 -217 -189 -244 -272 -14 -40 -41 -50 -155 -52 -207
-4 -259 -28 -258 -119 1 -56 22 -77 89 -87 25 -3 55 -8 67 -11 56 -10 549 -15
1675 -16 l1234 -1 10 -26 c40 -96 59 -131 89 -162 37 -39 97 -84 144 -110 117
-65 169 -88 223 -102 102 -26 162 -13 247 53 80 62 118 70 332 71 140 0 173
-10 238 -70 59 -54 102 -75 155 -74 127 2 459 191 510 292 10 20 12 83 6 211
-3 58 13 112 48 165 18 28 56 93 85 147 55 98 64 107 150 139 52 19 127 84
158 136 28 48 28 49 30 248 3 227 -3 254 -64 317 -41 43 -108 86 -143 93 -59
11 -61 13 -191 240 -74 129 -73 125 -70 261 4 152 -26 216 -134 279 l-65 38 0
676 c-1 799 -6 1301 -15 1391 -3 36 -8 84 -10 107 -7 89 -35 156 -81 200 -49
47 -87 70 -132 78 -120 21 -594 26 -2734 29 -1060 2 -1929 2 -1930 1z m4431
-240 c192 -11 212 -22 227 -130 11 -80 8 -237 -5 -276 l-12 -37 -717 -2 c-394
-1 -1526 -3 -2515 -5 l-1798 -2 2 165 c2 183 8 226 36 254 25 25 53 27 348 34
138 4 251 7 252 8 7 6 4077 -2 4182 -9z m216 -699 c7 -2 10 -235 10 -707 l0
-704 -66 -7 c-73 -7 -132 -31 -195 -78 -49 -37 -122 -48 -309 -44 -136 3 -167
12 -247 70 -127 93 -226 79 -463 -68 -105 -65 -160 -117 -186 -173 -15 -33
-18 -58 -14 -140 3 -58 0 -115 -6 -135 -6 -19 -49 -103 -96 -186 l-84 -151
-62 -21 c-100 -34 -153 -39 -617 -47 -365 -8 -2374 -12 -2558 -7 -116 4 -117
5 -128 88 -4 27 -9 560 -11 1186 l-5 1136 2514 -4 c1382 -2 2518 -6 2523 -8z
m132 -1743 c56 -44 98 -94 89 -104 -8 -7 -18 -94 -17 -136 2 -56 6 -67 97
-220 44 -72 95 -159 114 -194 65 -115 123 -165 215 -185 27 -6 43 -17 52 -34
17 -33 17 -246 0 -279 -8 -16 -32 -31 -72 -46 -134 -48 -140 -56 -359 -467
-54 -101 -64 -154 -42 -217 21 -57 20 -66 -6 -93 -25 -26 -165 -116 -211 -136
-25 -11 -33 -10 -61 7 -18 11 -41 30 -51 41 -29 32 -78 59 -121 66 -54 9 -309
10 -423 2 -147 -10 -186 -23 -242 -79 -46 -46 -49 -47 -83 -38 -46 13 -194
100 -229 135 -31 31 -31 31 -14 105 16 66 13 96 -16 164 -19 45 -40 83 -140
265 -94 171 -143 219 -253 249 -64 17 -69 28 -71 165 -3 150 8 182 64 192 85
15 209 117 230 189 7 22 46 98 88 168 112 192 131 260 95 359 -12 34 -12 39 5
58 24 27 146 107 199 131 62 28 81 24 129 -25 67 -70 141 -83 454 -80 208 2
227 6 313 69 26 19 63 41 81 49 31 13 37 12 80 -9 25 -13 73 -45 106 -72z
m-2076 -1025 c0 -73 2 -140 4 -148 1 -8 5 -31 9 -51 3 -20 8 -43 12 -52 15
-40 -20 -42 -698 -42 -441 0 -650 3 -658 11 -7 7 -3 35 15 94 14 46 39 137 56
202 l32 118 613 0 614 0 1 -132z m386 -611 l55 -79 -1149 5 c-631 3 -1166 7
-1187 10 -53 8 -63 20 -42 51 20 31 59 53 112 60 22 4 51 9 64 11 14 3 95 8
180 11 85 4 156 7 157 8 2 2 397 2 879 2 l876 -1 55 -78z"/>
<path d="M1043 5265 c-61 -26 -83 -86 -53 -146 22 -42 63 -69 107 -69 106 0
135 168 38 215 -40 18 -51 18 -92 0z"/>
<path d="M1430 5262 c-45 -22 -62 -69 -49 -134 6 -25 19 -54 30 -64 40 -36
129 -11 161 45 31 52 1 132 -59 157 -41 18 -41 18 -83 -4z"/>
<path d="M1827 5269 c-29 -8 -66 -43 -68 -63 0 -6 -3 -22 -5 -36 -9 -57 70
-127 131 -116 37 7 83 43 87 69 15 99 -57 172 -145 146z"/>
<path d="M2538 3977 c-112 -75 -488 -468 -488 -510 0 -54 451 -512 531 -540
27 -9 96 29 113 62 18 34 21 84 7 109 -5 9 -89 97 -186 195 l-177 178 120 122
c187 190 222 233 239 297 15 53 -13 105 -66 120 -27 7 -38 4 -93 -33z"/>
<path d="M4045 4001 c-38 -23 -61 -49 -74 -83 -9 -25 -5 -34 47 -100 32 -40
121 -135 198 -211 l139 -138 -150 -153 c-155 -156 -217 -227 -229 -259 -7 -22
23 -96 48 -116 53 -44 138 9 337 208 205 205 269 284 269 328 0 57 -488 543
-544 543 -6 0 -24 -8 -41 -19z"/>
<path d="M3533 3962 c-47 -7 -84 -65 -336 -515 -15 -27 -51 -91 -80 -141 -67
-116 -94 -173 -102 -219 -7 -33 -4 -40 29 -73 33 -33 40 -36 77 -31 31 4 50
15 77 44 55 60 192 277 305 483 16 30 38 69 48 85 10 17 36 67 58 112 82 165
75 223 -29 252 -14 4 -35 5 -47 3z"/>
<path d="M5210 2439 c-232 -63 -381 -264 -380 -514 0 -90 14 -153 55 -240 37
-78 148 -189 235 -235 62 -33 71 -34 190 -38 153 -5 221 10 307 67 137 91 214
203 244 355 53 269 -116 528 -391 601 -61 16 -206 18 -260 4z m277 -255 c49
-28 95 -81 125 -144 30 -61 30 -167 1 -230 -99 -214 -415 -225 -525 -18 -31
59 -32 192 -1 258 39 85 125 147 218 158 22 2 41 5 43 7 11 10 104 -11 139
-31z"/>
</g>
</svg>
