<?xml version="1.0" standalone="no"?>
<!DOCTYPE svg PUBLIC "-//W3C//DTD SVG 20010904//EN"
 "http://www.w3.org/TR/2001/REC-SVG-20010904/DTD/svg10.dtd">
<svg version="1.0" xmlns="http://www.w3.org/2000/svg"
 width="256.000000pt" height="256.000000pt" viewBox="0 0 256.000000 256.000000"
 preserveAspectRatio="xMidYMid meet">
<metadata>
Created by potrace 1.14, written by Peter Selinger 2001-2017
</metadata>
<g transform="translate(0.000000,256.000000) scale(0.100000,-0.100000)"
fill="#000000" stroke="none">
<path d="M283 2044 c-20 -10 -40 -32 -52 -58 -18 -39 -19 -67 -17 -609 l1
-569 33 -29 32 -29 305 0 c237 0 305 -3 305 -12 0 -7 -8 -42 -18 -78 l-19 -65
-60 -6 c-34 -3 -75 -14 -92 -25 -34 -22 -81 -80 -81 -101 0 -9 -18 -13 -63
-13 -64 0 -87 -11 -87 -39 1 -47 -16 -46 571 -46 l552 0 10 -30 c13 -37 42
-63 113 -99 62 -32 103 -30 140 5 19 17 36 21 100 23 72 1 79 -1 105 -26 16
-17 38 -28 55 -28 34 0 127 46 167 83 27 25 29 31 24 80 -3 39 0 58 13 77 10
14 27 43 38 65 14 29 27 41 44 42 12 1 35 16 51 33 25 28 27 37 27 116 0 81
-1 87 -29 115 -16 16 -39 29 -50 29 -14 0 -27 13 -42 42 -12 24 -30 55 -40 69
-13 19 -16 36 -12 68 7 50 -9 86 -47 106 l-25 13 -1 404 c-1 438 -1 440 -57
482 -28 21 -33 21 -945 23 -822 2 -920 1 -949 -13z m1852 -88 c17 -23 19 -145
2 -148 -7 -1 -423 -2 -924 -3 l-913 -1 0 72 c0 60 3 75 19 86 15 10 192 13
911 12 841 0 893 -1 905 -18z m10 -500 l0 -259 -33 -2 c-18 -2 -43 -12 -56
-24 -19 -18 -35 -21 -100 -21 -69 0 -82 3 -108 25 -42 35 -78 32 -159 -16 -77
-45 -94 -71 -85 -130 5 -30 0 -47 -29 -95 -19 -32 -35 -61 -35 -65 0 -3 -21
-12 -46 -19 -34 -10 -184 -13 -602 -14 -306 -1 -565 0 -574 2 -17 4 -18 33
-18 442 l0 438 923 -1 922 -2 0 -259z m-338 -360 c16 -26 50 -34 151 -34 94 0
105 2 131 24 16 13 35 24 42 24 23 -1 94 -56 91 -71 -12 -48 -9 -71 14 -105
13 -19 36 -57 49 -84 26 -50 57 -80 86 -80 22 0 26 -14 25 -74 -1 -47 -3 -50
-32 -58 -45 -12 -51 -19 -137 -182 -17 -32 -19 -44 -9 -68 10 -28 9 -30 -36
-59 -25 -16 -49 -29 -53 -29 -5 0 -20 11 -35 25 -25 23 -33 25 -132 24 -104 0
-139 -8 -155 -35 -12 -20 -26 -17 -79 16 -45 28 -46 30 -37 62 9 34 9 37 -55
153 -37 67 -53 84 -90 93 -29 8 -31 11 -32 58 -1 61 4 74 26 74 21 0 80 46 80
63 0 6 16 38 37 71 39 63 48 99 32 128 -8 15 -2 23 38 48 52 33 68 37 80 16z
m-377 -407 c0 -33 4 -68 9 -78 9 -17 -5 -18 -245 -19 -140 0 -254 3 -254 7 0
4 4 21 10 37 5 16 14 48 20 72 l11 42 224 0 225 0 0 -61z m140 -210 l21 -29
-440 0 c-401 0 -440 1 -434 16 14 37 53 41 449 42 l384 1 20 -30z"/>
<path d="M374 1922 c-22 -15 -24 -42 -5 -61 25 -25 59 -17 67 15 10 40 -29 69
-62 46z"/>
<path d="M510 1915 c-14 -17 -6 -60 12 -68 25 -9 58 12 58 36 0 43 -44 63 -70
32z"/>
<path d="M652 1918 c-30 -30 5 -83 46 -67 22 8 27 19 22 49 -4 29 -46 40 -68
18z"/>
<path d="M842 1377 c-50 -51 -92 -100 -92 -109 0 -21 174 -198 194 -198 46 0
65 54 29 82 -10 8 -40 37 -68 66 l-49 52 67 68 c66 67 79 96 55 120 -23 23
-44 11 -136 -81z"/>
<path d="M1466 1454 c-9 -8 -16 -22 -16 -30 0 -7 32 -46 71 -85 l72 -71 -73
-73 c-69 -70 -73 -76 -62 -100 21 -46 51 -33 150 69 72 73 91 98 85 112 -10
27 -179 194 -197 194 -8 0 -22 -7 -30 -16z"/>
<path d="M1272 1438 c-5 -7 -19 -29 -29 -48 -11 -19 -48 -83 -81 -142 -66
-113 -71 -128 -48 -148 36 -29 57 -9 147 148 85 148 94 174 65 194 -17 12 -42
9 -54 -4z"/>
<path d="M1903 891 c-154 -39 -188 -253 -55 -346 37 -26 53 -30 106 -30 51 0
70 5 103 27 53 35 83 85 90 150 12 128 -115 231 -244 199z m127 -111 c68 -72
22 -179 -77 -180 -57 0 -103 44 -103 98 1 70 42 111 113 112 31 0 45 -7 67
-30z"/>
</g>
</svg>
